<svg xmlns="http://www.w3.org/2000/svg" xmlns:xlink="http://www.w3.org/1999/xlink" viewBox="0 0 230 230">
  <defs>
    <style>
      .cls-1, .cls-3 {
        fill: #fff;
      }

      .cls-2 {
        fill: #f4f4f4;
      }

      .cls-2, .cls-3 {
        opacity: 0.5;
      }

      .cls-4 {
        fill: #37beb7;
      }

      .cls-5 {
        fill: #000078;
      }

      .cls-6 {
        fill: #fbc316;
      }

      .cls-7 {
        filter: url(#Rectangle_35);
      }
    </style>
    <filter id="Rectangle_35" x="0" y="0" width="230" height="230" filterUnits="userSpaceOnUse">
      <feOffset dy="4" input="SourceAlpha"/>
      <feGaussianBlur stdDeviation="5" result="blur"/>
      <feFlood flood-opacity="0.102"/>
      <feComposite operator="in" in2="blur"/>
      <feComposite in="SourceGraphic"/>
    </filter>
  </defs>
  <g id="Group_36" data-name="Group 36" transform="translate(-149 -2979)">
    <g class="cls-7" transform="matrix(1, 0, 0, 1, 149, 2979)">
      <rect id="Rectangle_35-2" data-name="Rectangle 35" class="cls-1" width="200" height="200" rx="25" transform="translate(15 11)"/>
    </g>
    <g id="Group_98" data-name="Group 98" transform="translate(212 3047)">
      <path id="Path_399" data-name="Path 399" class="cls-2" d="M4019.128,1530.794A7.81,7.81,0,0,0,4011,1522.6h-86.975a8.5,8.5,0,0,0-3.156.6c-3.291,1.276-4.97,3.963-4.97,7.791v74.483c0,2.149.4,2.552,2.552,2.552h98.056c2.216,0,2.619-.336,2.619-2.619Zm-99.8-.806a4.355,4.355,0,0,1,4.164-4.03,9.019,9.019,0,0,1,1.344-.067h85.9a4.748,4.748,0,0,1,4.3,1.948,5.963,5.963,0,0,0-3.291-.873h-85.9a9.013,9.013,0,0,0-1.343.067,4.408,4.408,0,0,0-4.164,4.03q-.1,4.836,0,9.873h-1.074c0-3.761-.067-7.321.067-10.947Zm0,14.373h96.445v.739H3920.4V1604.6h-1.075Z" transform="translate(-3914.489 -1521.122)"/>
      <path id="Path_400" data-name="Path 400" class="cls-3" d="M4016.844,1553.9H3920.4v60.244h96.445Z" transform="translate(-3915.967 -1531.401)"/>
      <path id="Path_401" data-name="Path 401" class="cls-1" d="M3967.424,1570.5H3932.5v18.872c1.411-1.88,2.687-3.492,3.962-5.1.538-.672,1.075-1.276,2.015-1.007a1.874,1.874,0,0,1,1.343,1.813c.135,1.276.269,2.485.4,3.761q.3,2.619.6,5.44a3.224,3.224,0,0,0,.739-.4c2.149-1.343,4.3-2.686,6.515-3.962,1.41-.873,1.947-.739,3.089.47.873.94,1.679,1.881,2.485,2.821.4.47.806.873,1.343,1.411a8.29,8.29,0,0,1,.336-1.276c.6-2.754,1.141-5.574,1.746-8.328.2-.873.537-1.545,1.478-1.746.94-.134,1.477.4,1.88,1.209a11.7,11.7,0,0,0,.739,1.209c1.075,1.746,2.082,3.492,3.224,5.373a16.3,16.3,0,0,1,2.082-1.41,1.99,1.99,0,0,0,1.008-2.015c-.067-3.963,0-7.858,0-11.821C3967.424,1573.992,3967.424,1572.246,3967.424,1570.5Z" transform="translate(-3919.941 -1536.852)"/>
      <path id="Path_402" data-name="Path 402" class="cls-4" d="M3959.533,1598.7a9.142,9.142,0,0,0-.336,1.276c-.47,2.351-1.007,4.7-1.478,7.052-.2.873-.4,1.679-1.344,1.948-1.007.269-1.545-.4-2.149-1.007-1.478-1.612-2.955-3.224-4.3-4.9-.537-.672-.94-.672-1.679-.2-2.552,1.612-5.171,3.156-7.724,4.7-1.343.806-2.552.134-2.754-1.41-.269-2.216-.47-4.5-.739-6.716a8.12,8.12,0,0,0-.2-.94c-1.478,1.881-2.754,3.56-4.1,5.306a2.558,2.558,0,0,0-.269,1.276c0,3.425,0,6.851-.067,10.276,0,1.007.269,1.276,1.276,1.276,10.813-.067,21.693,0,32.506,0h1.142v-14.44c-.739.537-1.344.94-2.015,1.41-1.544,1.075-2.35.873-3.291-.739C3961.212,1601.522,3960.406,1600.246,3959.533,1598.7Z" transform="translate(-3919.907 -1546.047)"/>
      <path id="Path_403" data-name="Path 403" class="cls-5" d="M3965.38,1605.83h-49.028c-2.216,0-2.552-.336-2.552-2.552V1528.8c0-3.828,1.679-6.515,4.97-7.791a9.761,9.761,0,0,1,3.156-.6H4008.9a7.81,7.81,0,0,1,8.126,8.194c.067,7.388,0,14.776,0,22.1v52.453c0,2.284-.336,2.619-2.619,2.619C3998.088,1605.83,3981.7,1605.83,3965.38,1605.83Zm48.289-63.6h-96.445v60.244h96.445Zm-96.511-3.492h96.511v-9.94c0-3.291-1.814-5.1-5.172-5.1h-85.9a9.014,9.014,0,0,0-1.343.067,4.407,4.407,0,0,0-4.164,4.03C3917.091,1531.414,3917.158,1535.041,3917.158,1538.735Z" transform="translate(-3913.799 -1520.4)"/>
      <path id="Path_404" data-name="Path 404" class="cls-5" d="M3967.973,1587.161v19.678c0,1.612-.47,2.082-2.083,2.082h-37.409c-1.545,0-2.083-.537-2.083-2.149v-39.29c0-1.746.6-2.284,2.485-2.284h36.536a5.009,5.009,0,0,1,1.747.269c.806.336.873,1.075.873,1.813C3967.973,1573.93,3967.973,1580.579,3967.973,1587.161Zm-3.291-18.4h-34.924v18.873c1.41-1.881,2.687-3.492,3.962-5.1.537-.672,1.075-1.276,2.015-1.008a1.874,1.874,0,0,1,1.343,1.813c.134,1.276.269,2.485.4,3.761q.3,2.619.6,5.44a3.23,3.23,0,0,0,.739-.4c2.149-1.343,4.3-2.686,6.515-3.963,1.411-.873,1.947-.739,3.089.47.873.94,1.679,1.881,2.485,2.821.4.47.806.873,1.343,1.411a8.341,8.341,0,0,1,.336-1.276c.6-2.754,1.141-5.574,1.746-8.328.2-.873.537-1.545,1.477-1.746.94-.134,1.478.4,1.881,1.209a11.611,11.611,0,0,0,.739,1.209c1.074,1.746,2.082,3.492,3.224,5.373a16.362,16.362,0,0,1,2.083-1.41,1.991,1.991,0,0,0,1.007-2.015c-.067-3.963,0-7.858,0-11.821-.068-1.813-.068-3.559-.068-5.306Zm-7.858,19.007a9.15,9.15,0,0,0-.335,1.276c-.471,2.351-1.008,4.7-1.478,7.052-.2.873-.4,1.679-1.343,1.948-1.007.269-1.545-.4-2.149-1.007-1.477-1.612-2.955-3.224-4.3-4.9-.537-.672-.94-.672-1.679-.2-2.552,1.612-5.171,3.156-7.724,4.7-1.343.806-2.552.134-2.754-1.41-.269-2.216-.47-4.5-.739-6.716a8.12,8.12,0,0,0-.2-.94c-1.478,1.88-2.754,3.56-4.1,5.306a2.55,2.55,0,0,0-.269,1.276c0,3.425,0,6.85-.067,10.276,0,1.007.269,1.276,1.276,1.276,10.813-.067,21.693,0,32.506,0h1.142v-14.44c-.739.537-1.343.94-2.015,1.411-1.545,1.074-2.351.873-3.291-.739-.739-1.343-1.545-2.619-2.485-4.164Z" transform="translate(-3917.937 -1535.111)"/>
      <path id="Path_405" data-name="Path 405" class="cls-5" d="M4015.711,1565.1a15.279,15.279,0,1,1-15.312,15.044,15.28,15.28,0,0,1,15.313-15.044Zm0,3.291a11.988,11.988,0,1,0,11.955,12.022,11.988,11.988,0,0,0-11.955-12.022Z" transform="translate(-3942.237 -1535.079)"/>
      <path id="Path_406" data-name="Path 406" class="cls-4" d="M4014.43,1625.467h15.85c.806,0,1.545.134,1.813.94.135.537.135,1.343-.2,1.612a3.091,3.091,0,0,1-1.813.739c-9.739.067-19.544,0-29.283,0-.672,0-1.343.067-2.015,0a1.868,1.868,0,0,1-2.082-1.679c0-1.007.739-1.612,2.082-1.679C4003.953,1625.467,4009.192,1625.467,4014.43,1625.467Z" transform="translate(-3941.023 -1554.88)"/>
      <path id="Path_407" data-name="Path 407" class="cls-4" d="M4032.956,1620.154c-2.082,0-4.1.067-6.179,0a2.687,2.687,0,0,1-1.746-.672,1.881,1.881,0,0,1-.269-1.612c.2-.806.94-1.074,1.746-1.074h13.164a1.651,1.651,0,1,1,.067,3.291H4039C4036.919,1620.154,4034.971,1620.154,4032.956,1620.154Z" transform="translate(-3950.213 -1552.052)"/>
      <path id="Path_408" data-name="Path 408" class="cls-5" d="M3932.391,1536.212a1.649,1.649,0,0,1-1.612,1.679,1.753,1.753,0,0,1-1.679-1.679,1.59,1.59,0,0,1,1.612-1.612,1.645,1.645,0,0,1,1.679,1.612Z" transform="translate(-3918.824 -1525.063)"/>
      <path id="Path_409" data-name="Path 409" class="cls-5" d="M3943.591,1536.246a1.605,1.605,0,0,1-1.679,1.612,1.746,1.746,0,0,1-1.612-1.679,1.705,1.705,0,0,1,1.679-1.679,1.662,1.662,0,0,1,1.611,1.746Z" transform="translate(-3922.502 -1525.03)"/>
      <path id="Path_410" data-name="Path 410" class="cls-5" d="M3954.988,1536.284a1.666,1.666,0,0,1-1.746,1.612,1.612,1.612,0,0,1-1.545-1.746,1.647,1.647,0,0,1,3.291.134Z" transform="translate(-3926.243 -1525.068)"/>
      <path id="Path_411" data-name="Path 411" class="cls-1" d="M4017.321,1570a11.988,11.988,0,1,0,11.955,12.022A11.989,11.989,0,0,0,4017.321,1570Z" transform="translate(-3943.846 -1536.688)"/>
      <path id="Path_412" data-name="Path 412" class="cls-6" d="M4022.291,1589.823c-.134,2.418-.537,3.156-1.746,3.089-1.142,0-1.545-.672-1.746-3.022-.4-.067-.873-.067-1.276-.134a1.627,1.627,0,0,1-1.544-1.679,1.594,1.594,0,0,1,1.679-1.545c1.142-.067,2.283,0,3.426,0,.671,0,1.343-.067,1.343-.94s-.739-.873-1.343-.873a17.619,17.619,0,0,1-1.881-.067,4.214,4.214,0,0,1-3.828-3.559,4.084,4.084,0,0,1,2.619-4.5,1.152,1.152,0,0,0,.94-1.343c-.067-1.41.6-2.149,1.679-2.149s1.612.739,1.679,2.149a4.139,4.139,0,0,0,.067.873c.4,0,.806.067,1.142.067a1.647,1.647,0,1,1-.067,3.291c-1.142.067-2.283,0-3.425,0-.672,0-1.276.134-1.276.873,0,.873.6.94,1.343.94h1.41a4.3,4.3,0,0,1,4.3,3.425,4.174,4.174,0,0,1-2.888,4.836,2.377,2.377,0,0,1-.6.269Z" transform="translate(-3947.137 -1537.706)"/>
      <path id="Path_413" data-name="Path 413" class="cls-4" d="M3920.367,1541.943h96.511V1532c0-3.291-1.813-5.1-5.171-5.1h-85.9a9.013,9.013,0,0,0-1.343.067,4.407,4.407,0,0,0-4.164,4.03C3920.3,1534.622,3920.367,1538.249,3920.367,1541.943Z" transform="translate(-3915.934 -1522.533)"/>
    </g>
  </g>
</svg>
