<svg xmlns="http://www.w3.org/2000/svg" xmlns:xlink="http://www.w3.org/1999/xlink" viewBox="0 0 230 230">
  <defs>
    <style>
      .cls-1 {
        fill: #fff;
      }

      .cls-2 {
        fill: #f4f4f4;
      }

      .cls-3 {
        fill: #f7f8fb;
      }

      .cls-4 {
        fill: #000078;
      }

      .cls-5 {
        fill: #fbc316;
      }

      .cls-6 {
        fill: #37beb7;
      }

      .cls-7 {
        filter: url(#Rectangle_55);
      }
    </style>

  </defs>
  <g id="Group_53" data-name="Group 53" transform="translate(-151 -79)">
    <g class="cls-7" transform="matrix(1, 0, 0, 1, 151, 79)">
      <rect id="Rectangle_55-2" data-name="Rectangle 55" class="cls-1" width="200" height="200" rx="25" transform="translate(15 11)"/>
    </g>
    <g id="Group_111" data-name="Group 111" transform="translate(-2088.096 -1895.7)">
      <g id="Group_110" data-name="Group 110" transform="translate(2308.621 2037.355)">
        <g id="Group_109" data-name="Group 109" transform="translate(0)">
          <g id="Group_106" data-name="Group 106" transform="translate(0 35.208)">
            <g id="Group_105" data-name="Group 105">
              <path id="Path_452" data-name="Path 452" class="cls-2" d="M2406.419,2123.96a26.536,26.536,0,0,0-9.861-17.074,25.489,25.489,0,0,0-13.9-5.493c-.6-.066-.662-.133-.662-.728.066-1.721.066-3.375,0-5.03v-1.191c0-2.118-.927-3.044-3.044-3.044h-66.444c-2.052,0-3.044.927-3.111,2.978v21.442c0,2.581.927,3.508,3.574,3.573h41.76l-1.324,6.817h-40.237c-2.846,0-3.706.86-3.706,3.706v20.119c0,1.919.2,3.044.794,3.706.662.662,1.787.794,3.706.794H2377.3a45.325,45.325,0,0,0,6.949-.463,25.744,25.744,0,0,0,15.486-8.272C2405.361,2139.447,2407.677,2132.1,2406.419,2123.96Zm-24.288-17.471a20.461,20.461,0,0,1,15.221,8.736,20.412,20.412,0,0,0-13.633-6.684,21.243,21.243,0,0,0-16.148,5.294,21.589,21.589,0,0,0-7.214,15.221,21.249,21.249,0,0,0,3.838,12.971,21.083,21.083,0,0,1-5.426-15.023,21.591,21.591,0,0,1,7.213-15.221,20.986,20.986,0,0,1,16.148-5.294Zm-18.663,42.487a28.263,28.263,0,0,1-5.03-5.89,27.757,27.757,0,0,0,5.625,5.89Zm-48.642-34.744v-17.273c0-.2.066-.265,0-.265h60.819a4.4,4.4,0,0,1,1.059.066,4.12,4.12,0,0,1,.067,1.059v.132h-61.084V2114.3h-.53a.5.5,0,0,0-.331-.066Zm0,17.8c0-.4.066-.4.066-.4s.066-.066.331-.066h38.649l.2,1.191h-37.987c-.265,0-.331.066-.331.066s-.066.066-.066.4v15.751h-.794v-7.942C2314.893,2138.123,2314.893,2135.079,2314.827,2132.034Z" transform="translate(-2309.4 -2091.4)"/>
            </g>
          </g>
          <g id="Group_108" data-name="Group 108" transform="translate(0.066)">
            <g id="Group_107" data-name="Group 107">
              <path id="Path_453" data-name="Path 453" class="cls-2" d="M2312.875,2066.591h65.717c2.316,0,3.441-1.125,3.441-3.508v-21.177c0-2.912-.794-3.706-3.706-3.706h-65.452c-2.448,0-3.375.927-3.375,3.375v21.641C2309.5,2065.6,2310.493,2066.591,2312.875,2066.591Zm1.985-22.5c0-.265.066-.4,0-.4a.964.964,0,0,1,.4-.066h61.349v.794h-60.488a.961.961,0,0,0-.4.066v.4c.066,5.824.066,11.118,0,16.214h-.331a1.136,1.136,0,0,1-.463-.066h0s-.066-.066-.066-.4C2314.927,2055.473,2314.927,2050.046,2314.861,2044.09Z" transform="translate(-2309.5 -2038.2)"/>
            </g>
          </g>
        </g>
      </g>
      <path id="Path_454" data-name="Path 454" class="cls-3" d="M2316.366,2045.663c0-.265.066-.4,0-.4a.959.959,0,0,1,.4-.066h61.349V2062.6h-61.282a1.142,1.142,0,0,1-.463-.066h0s-.066-.066-.066-.4C2316.366,2057.046,2316.432,2051.619,2316.366,2045.663Z" transform="translate(-3.113 -3.212)"/>
      <path id="Path_455" data-name="Path 455" class="cls-3" d="M2316.4,2099.061c0-.2.066-.265,0-.265h60.819a4.4,4.4,0,0,1,1.059.066,4.109,4.109,0,0,1,.066,1.059v2.316a6.52,6.52,0,0,1-.066,1.39c-.066.132-.662.2-1.324.331a26.441,26.441,0,0,0-17.67,11.979,1.4,1.4,0,0,1-.794.529c-12.971.066-26.141.066-38.848,0h-3.11v-3.508C2316.4,2108.194,2316.4,2103.627,2316.4,2099.061Z" transform="translate(-3.147 -21.337)"/>
      <path id="Path_456" data-name="Path 456" class="cls-3" d="M2316.4,2151.963c0-.4.066-.4.066-.4s.066-.066.331-.066h38.649a27.037,27.037,0,0,0,10.258,17.405h-49.238v-7.941C2316.4,2157.986,2316.4,2154.941,2316.4,2151.963Z" transform="translate(-3.147 -39.164)"/>
      <path id="Path_457" data-name="Path 457" class="cls-3" d="M2383.99,2135.271a21.435,21.435,0,0,1,23.362-20.516,21.334,21.334,0,0,1-2.052,42.553h-.132a21.216,21.216,0,0,1-15.288-6.552,20.978,20.978,0,0,1-5.89-15.486Z" transform="translate(-26 -26.707)"/>
      <path id="Path_458" data-name="Path 458" class="cls-4" d="M2307.828,2151.275c.662.662,1.787.794,3.706.794h63.334a45.32,45.32,0,0,0,6.949-.463,25.743,25.743,0,0,0,15.486-8.272c5.692-6.353,8.008-13.633,6.817-21.773a26.539,26.539,0,0,0-9.861-17.074,25.49,25.49,0,0,0-13.9-5.493c-.6-.066-.662-.132-.662-.728.066-1.721.066-3.375,0-5.03v-1.191c0-2.118-.926-3.044-3.044-3.044H2310.21c-2.052,0-3.044.927-3.11,2.978v21.442c0,2.581.927,3.508,3.574,3.573h41.76l-1.324,6.817h-40.237c-2.846,0-3.706.86-3.706,3.706v20.119c-.132,1.853,0,2.978.662,3.64m4.633-56.782c0-.2.066-.265,0-.265h60.819a4.4,4.4,0,0,1,1.059.066,4.118,4.118,0,0,1,.066,1.059v2.316a6.539,6.539,0,0,1-.066,1.39c-.066.132-.662.2-1.323.331a26.441,26.441,0,0,0-17.67,11.979,1.4,1.4,0,0,1-.794.53c-12.971.066-26.141.066-38.847,0h-3.111v-3.508c-.132-4.765-.132-9.331-.132-13.9Zm43.877,30.045a21.434,21.434,0,0,1,23.361-20.516,21.334,21.334,0,0,1-2.052,42.553h-.132a21.252,21.252,0,0,1-21.178-22.038Zm-43.877,5.1c0-.4.066-.4.066-.4s.066-.066.331-.066h38.649a27.038,27.038,0,0,0,10.258,17.405h-49.238v-7.942c-.066-2.978-.066-6.022-.066-9Z" transform="translate(-0.002 -18.026)"/>
      <path id="Path_459" data-name="Path 459" class="cls-4" d="M2310.474,2064.091h65.717c2.316,0,3.441-1.125,3.441-3.508v-21.177c0-2.912-.794-3.706-3.706-3.706h-65.452c-2.449,0-3.375.927-3.375,3.375v21.641C2307.032,2063.1,2308.091,2064.091,2310.474,2064.091Zm1.985-22.435c0-.265.066-.4,0-.4a.961.961,0,0,1,.4-.066H2374.2V2058.6h-61.282a1.139,1.139,0,0,1-.463-.066h0s-.066-.066-.066-.4c.066-5.1.066-10.522.066-16.479Z" transform="translate(0 0)"/>
      <path id="Path_460" data-name="Path 460" class="cls-5" d="M2390.8,2137.688l1.588,2.846c1.257,2.25,2.581,4.566,3.9,6.817a3.131,3.131,0,0,0,2.118,1.588c.132,0,.265.066.4.066a2.675,2.675,0,0,0,1.655-.6c6.552-5.493,13.1-10.986,19.589-16.545a2.937,2.937,0,0,0,1.125-1.919,2.726,2.726,0,0,0-.662-1.919,2.648,2.648,0,0,0-3.839-.2c-.728.6-1.522,1.257-2.25,1.853-.331.265-.662.6-1.059.86l-13.832,11.582c-.132-.2-.2-.331-.331-.53-.463-.794-.86-1.522-1.324-2.316-.926-1.588-1.853-3.243-2.846-4.831a2.523,2.523,0,0,0-3.574-.993,2.81,2.81,0,0,0-1.191,3.64A2.139,2.139,0,0,1,2390.8,2137.688Z" transform="translate(-28.041 -30.911)"/>
      <path id="Path_461" data-name="Path 461" class="cls-6" d="M2325.537,2111.338h11.979a2.642,2.642,0,0,0,2.846-2.713,2.609,2.609,0,0,0-2.779-2.647c-3.9-.066-8.074-.066-12.177.066a2.979,2.979,0,0,0-2.316,1.39,2.469,2.469,0,0,0-.132,2.515A3.075,3.075,0,0,0,2325.537,2111.338Z" transform="translate(-5.269 -23.754)"/>
      <path id="Path_462" data-name="Path 462" class="cls-6" d="M2325.642,2164.235h11.846a3.148,3.148,0,0,0,2.25-.86,2.6,2.6,0,0,0,.728-1.853,2.648,2.648,0,0,0-2.912-2.647c-4.037-.066-8.008-.066-11.846,0a3.149,3.149,0,0,0-2.25.861,2.535,2.535,0,0,0-.662,1.919C2322.73,2162.647,2323.193,2164.235,2325.642,2164.235Z" transform="translate(-5.308 -41.641)"/>
      <path id="Path_463" data-name="Path 463" class="cls-6" d="M2325.611,2058.395h11.846a3.15,3.15,0,0,0,2.25-.86,2.6,2.6,0,0,0,.728-1.853c-.066-1.655-1.125-2.581-3.044-2.581h-11.714c-1.787,0-2.912.927-2.978,2.581a2.827,2.827,0,0,0,.662,1.919A3.427,3.427,0,0,0,2325.611,2058.395Z" transform="translate(-5.277 -5.885)"/>
      <path id="Path_464" data-name="Path 464" class="cls-6" d="M2389.906,2058.846h0a3.686,3.686,0,0,0,3.707-3.64,3.73,3.73,0,0,0-3.64-3.706h-.066a3.728,3.728,0,0,0-3.706,3.772A3.673,3.673,0,0,0,2389.906,2058.846Z" transform="translate(-26.753 -5.344)"/>
    </g>
  </g>
</svg>
