<svg xmlns="http://www.w3.org/2000/svg" xmlns:xlink="http://www.w3.org/1999/xlink" viewBox="0 0 230 230">
  <defs>
    <style>
      .cls-1 {
        fill: #fff;
      }

      .cls-2 {
        fill: #f4f4f4;
      }

      .cls-3 {
        fill: #37beb7;
      }

      .cls-4 {
        fill: #f2f3f4;
      }

      .cls-5 {
        fill: #fbc316;
      }

      .cls-6 {
        fill: #000078;
      }

      .cls-7 {
        filter: url(#Rectangle_49);
      }
    </style>
  </defs>
  <g id="Group_47" data-name="Group 47" transform="translate(-151 -394)">
    <g class="cls-7" transform="matrix(1, 0, 0, 1, 151, 394)">
      <rect id="Rectangle_49-2" data-name="Rectangle 49" class="cls-1" width="200" height="200" rx="25" transform="translate(15 11)"/>
    </g>
    <g id="Group_73" data-name="Group 73" transform="translate(-1523.467 19.766)">
      <path id="Path_148" data-name="Path 148" class="cls-2" d="M1835.277,507.2a6.844,6.844,0,0,0-4.366-6.267c-.514-.205-.565-.36-.565-.976,0-9.657,0-18.493-.051-27.02,0-.616.1-.822.668-1.079A7.141,7.141,0,0,0,1835.02,464a7.265,7.265,0,0,0-6.472-5.907,7.409,7.409,0,0,0-5.394,1.644l-4.726-2.723c-6.524-3.75-13.253-7.6-19.828-11.353-.411-.205-.462-.36-.359-.822a7.231,7.231,0,0,0-9.2-7.911c-3.75,1.079-5.651,4.418-5.086,8.733l-4.623,2.671c-6.37,3.7-13,7.551-19.469,11.353-.205.1-.205.1-.514-.1-.051-.051-.1-.1-.154-.1a7.053,7.053,0,0,0-7.705-.873,6.821,6.821,0,0,0-4.058,6.729,6.927,6.927,0,0,0,4.315,6.421c.514.257.616.36.616.976,0,9.3,0,18.493.052,27.277a1.028,1.028,0,0,1-.719,1.181,6.927,6.927,0,0,0-4.315,6.421,6.786,6.786,0,0,0,3.7,6.524,7.005,7.005,0,0,0,8.527-.925h0a5.6,5.6,0,0,0,.771.411c2.055,1.181,4.109,2.363,6.216,3.544,5.291,3.031,10.787,6.216,16.181,9.246a1.073,1.073,0,0,1,.308.206c1.181.668,1.7.976,1.284,2.106a.981.981,0,0,0,0,.668v.1a7.216,7.216,0,0,0,7.192,6.421,4.418,4.418,0,0,0,.822-.051,7.064,7.064,0,0,0,6.37-7.859,1.068,1.068,0,0,1,.719-1.284c6.935-4.007,14.486-8.373,23.065-13.407.565-.308.719-.308,1.13,0a6.832,6.832,0,0,0,7.705.565,6.6,6.6,0,0,0,3.9-6.678Zm-7.4-44.9h0a2.845,2.845,0,0,1,2.877,2.158,3.042,3.042,0,0,0-2.363-1.182h-.051a2.961,2.961,0,0,0-3.031,2.979,4.51,4.51,0,0,0,.1.873,3.012,3.012,0,0,1-.616-1.9,3.062,3.062,0,0,1,3.082-2.928Zm-40.992,26.558a1.428,1.428,0,0,0,.051.462c.051.771.1,1.438.154,2.158a25.688,25.688,0,0,0,2.774,9.811,6.393,6.393,0,0,0,.873,1.233,4.178,4.178,0,0,1-1.849-2,25.03,25.03,0,0,1-2.774-9.811c-.052-.719-.1-1.387-.154-2.157a1.431,1.431,0,0,0-.051-.462h10.736c0,.257-.051.514-.051.719h-9.709Zm-2.723-16.541c-.051.206-.154.411-.205.616a16.759,16.759,0,0,0-7.654,10.787h-1.079c.411-4.88,4.521-10.325,9.2-12.277A4.336,4.336,0,0,1,1784.164,472.318Zm8.116-1.49c-1.079,0-1.9.771-2.466,2.26a69.115,69.115,0,0,0-2.414,7.6,14,14,0,0,0-.359,3.031v.1h-1.027c0-.308.051-.565.051-.873a18.837,18.837,0,0,1,.36-3.031,69.172,69.172,0,0,1,2.414-7.6c.565-1.541,1.438-2.312,2.466-2.26a1.879,1.879,0,0,1,1.541.822c-.154,0-.36-.051-.565-.051ZM1781.7,488.14c0,.257.051.514.051.719h-5.6a15.919,15.919,0,0,0,5.959,10.993,16.1,16.1,0,0,1-6.935-11.763h6.524Zm7.705,18.75v.411a23.961,23.961,0,0,1-4.366-1.336,19.979,19.979,0,0,0,4.366.925Zm12.38-23.116h-.925a36.425,36.425,0,0,0-2.825-12.38,11.966,11.966,0,0,1,3.7,2.158,10.494,10.494,0,0,0-2.723-1.387A34.551,34.551,0,0,1,1801.784,483.773Zm-.925,4.366h6.781a3.372,3.372,0,0,1,0,.719h-5.8a36.936,36.936,0,0,1-2.26,11.712,16.355,16.355,0,0,1-1.644.822,33.806,33.806,0,0,0,2.928-13.253Zm7.14-14.075a21.113,21.113,0,0,0-8.27-6.575,20.635,20.635,0,0,1,9.2,6.062Zm-10.787-24.349c.205.1.462.257.668.36a1.207,1.207,0,0,0-.514.411,3.627,3.627,0,0,1-1.7.925c-.36.1-.462.154-.462.822V466c-.616-.1-1.284-.206-1.952-.308,0-.154-.051-.36-.051-.514V451.462c0-.668.1-.719.462-.822a3.627,3.627,0,0,0,1.7-.925c.514-.565.873-.565,1.849,0Zm-6.164-8.784a3.1,3.1,0,0,1,2.979,2.209,3.139,3.139,0,0,0-2.466-1.233,2.973,2.973,0,0,0-3.031,3.031,5.061,5.061,0,0,0,.1.873,2.868,2.868,0,0,1-.616-1.849,2.973,2.973,0,0,1,3.031-3.031Zm-28.715,22.191c7.808-4.521,15.667-9.041,23.27-13.51a1.715,1.715,0,0,1,.616-.257c.154,0,.257.1.462.257a2.644,2.644,0,0,0,.976.668h-.051c-7.6,4.469-15.411,8.99-23.27,13.51-.514.308-.616.462-.462.976a5.934,5.934,0,0,1,.052,1.336,3.824,3.824,0,0,0,0,.771c.051.308.154.616.257.668,3.442,2.055,6.883,4.007,10.479,6.062l.359.205c-.051.1-.154.154-.205.257l-2.106-1.233c-3.6-2.106-7.037-4.058-10.479-6.062a1.753,1.753,0,0,1-.257-.668v-.771a2.964,2.964,0,0,0-.052-1.336C1761.716,463.585,1761.768,463.431,1762.333,463.123Zm-10.685,2.055a2.983,2.983,0,0,1,3.031-3.031h0a3.145,3.145,0,0,1,2.979,2.209,2.994,2.994,0,0,0-2.466-1.233h0a2.983,2.983,0,0,0-3.031,3.031,4.478,4.478,0,0,0,.1.822A3.158,3.158,0,0,1,1751.648,465.178Zm3.082,39.5h0a3.191,3.191,0,0,1,2.979,2.312,3.165,3.165,0,0,0-2.466-1.336h-.052a3.225,3.225,0,0,0-3.134,3.185,3.98,3.98,0,0,0,.1.771,3.161,3.161,0,0,1-.616-1.8,3.339,3.339,0,0,1,3.185-3.133Zm4.418-2.671c-.719-.36-1.438-.719-2.106-1.13-.154-.1-.308-.257-.308-.36-.051-8.322-.051-16.8-.051-24.965v-3.339l3.082-1.747,1.592.925-2.774,1.541v3.339c0,8.168,0,16.644.051,24.965a1.92,1.92,0,0,0,.308.36c.308.206.668.36.976.565l-.257.154a2.244,2.244,0,0,0-.514-.308Zm2.774,7.654v-3.75l12.534-7.757c.36.462.668.873,1.027,1.336l-11.609,7.192v3.75l22.808,13.1c-.1.051-.205.154-.308.206Zm29.794,16.078h0a2.947,2.947,0,0,1,2.928,2.158,3.042,3.042,0,0,0-2.363-1.182h-.051a3.106,3.106,0,0,0-3.082,2.979,3.991,3.991,0,0,0,.1.822,2.969,2.969,0,0,1-.616-1.849A3.062,3.062,0,0,1,1791.716,525.742Zm4.521-2.568a8.237,8.237,0,0,0-1.952-1.181,5.6,5.6,0,0,1-.565-.308V506.889a20.988,20.988,0,0,0,14.743-8.835l1.746,1.027a20.893,20.893,0,0,1-14.537,8.579v14.794a5.612,5.612,0,0,1,.565.308c.359.206.719.36,1.079.565C1796.8,523.533,1796.647,523.533,1796.236,523.173Zm27.02-21.215c-3.7-2.158-7.5-4.418-11.147-6.575l-1.7-.976a21.529,21.529,0,0,0-.308-16.746l12.585-6.986,1.644.925-12.277,6.832a21.523,21.523,0,0,1,.308,16.746l1.7.976c3.185,1.849,6.421,3.8,9.657,5.651a.179.179,0,0,0-.1.051,1.306,1.306,0,0,1-.36.1Zm2.671,3.442a3,3,0,0,1,2.106-.873h.051a3.035,3.035,0,0,1,2.877,2.209,3.115,3.115,0,0,0-2.414-1.233h-.051a3,3,0,0,0-2.106.873,3.076,3.076,0,0,0-.925,2.157,4,4,0,0,0,.1.822,2.969,2.969,0,0,1-.616-1.849,3.481,3.481,0,0,1,.976-2.106Z" transform="translate(-0.924 -0.681)"/>
      <path id="Path_149" data-name="Path 149" class="cls-3" d="M1845.9,550.153a34.739,34.739,0,0,0,2.928-13.253h6.781c.206,1.9-.719,4.469-2.466,7.038A16.859,16.859,0,0,1,1845.9,550.153Z" transform="translate(-48.841 -49.441)"/>
      <path id="Path_150" data-name="Path 150" class="cls-3" d="M1833.185,536.9c-.205,4.315-.822,8.784-3.133,12.688-.514.822-1.284,1.849-2.209,1.849h0c-.771,0-1.644-.771-2.363-2.106a25.034,25.034,0,0,1-2.774-9.811c-.051-.719-.1-1.387-.154-2.158a1.425,1.425,0,0,0-.051-.462Z" transform="translate(-37.461 -49.441)"/>
      <path id="Path_151" data-name="Path 151" class="cls-3" d="M1832.825,515.465H1822.5c0-.308.051-.565.051-.873a18.824,18.824,0,0,1,.36-3.031,69.117,69.117,0,0,1,2.414-7.6c.565-1.541,1.438-2.312,2.466-2.26,1.13,0,1.746.976,2.466,2.312,1.8,3.339,2.466,6.883,2.877,11.455Z" transform="translate(-37.461 -32.321)"/>
      <path id="Path_152" data-name="Path 152" class="cls-3" d="M1848.825,516.68A36.428,36.428,0,0,0,1846,504.3c4.315,1.49,8.938,6.678,9.555,12.38Z" transform="translate(-48.89 -33.587)"/>
      <path id="Path_153" data-name="Path 153" class="cls-3" d="M1810.8,504.4c-.1.308-.205.565-.308.873a47.828,47.828,0,0,0-1.438,4.829,49.423,49.423,0,0,0-.822,4.931c-.051.565-.154,1.13-.257,1.7h-6.37C1802.011,511.849,1806.172,506.4,1810.8,504.4Z" transform="translate(-27.298 -33.636)"/>
      <path id="Path_154" data-name="Path 154" class="cls-3" d="M1808.024,536.9a35.108,35.108,0,0,0,2.825,13.048c-4.469-1.8-9.041-7.192-9.349-13.048Z" transform="translate(-27.249 -49.441)"/>
      <path id="Path_155" data-name="Path 155" class="cls-4" d="M1871.5,509.886l12.585-6.986,3.339,1.9v27.945c-.154.1-.308.154-.462.257l-2,1.079a1.067,1.067,0,0,1-.308.1c-3.7-2.158-7.5-4.418-11.147-6.575l-1.7-.976A21.523,21.523,0,0,0,1871.5,509.886Z" transform="translate(-61.291 -32.907)"/>
      <path id="Path_156" data-name="Path 156" class="cls-4" d="M1866.034,478.754a3.28,3.28,0,0,1-.1.36c-3.6,2-7.243,4.058-10.788,6.01l-1.849,1.027a20.666,20.666,0,0,0-14.743-8.219c0-.154-.052-.36-.052-.514V463.7c0-.668.1-.719.462-.822a3.627,3.627,0,0,0,1.7-.925c.565-.616.873-.616,1.849-.051,5.7,3.339,11.507,6.627,17.106,9.863,1.9,1.079,3.75,2.158,5.651,3.236.308.154.565.308.822.462v.719C1866.085,477.007,1866.085,477.88,1866.034,478.754Z" transform="translate(-45.242 -12.767)"/>
      <path id="Path_157" data-name="Path 157" class="cls-4" d="M1804.536,464.479c-.051,3.339-.051,6.627-.051,10.12v3.339a20.873,20.873,0,0,0-14.332,8.373l-2.106-1.233c-3.6-2.106-7.038-4.058-10.479-6.062a1.756,1.756,0,0,1-.257-.668v-.771a2.966,2.966,0,0,0-.051-1.336c-.1-.514-.051-.668.462-.976,7.808-4.52,15.667-9.041,23.27-13.51a1.718,1.718,0,0,1,.616-.257c.154,0,.257.1.462.257a2.671,2.671,0,0,0,1.387.822C1804.433,462.733,1804.536,463.144,1804.536,464.479Z" transform="translate(-15.439 -12.773)"/>
      <path id="Path_158" data-name="Path 158" class="cls-4" d="M1777.6,564.157l12.534-7.757a20.837,20.837,0,0,0,14.948,8.733v4.829c0,3.134.051,6.37.1,9.555,0,.514-.051.616-.462.822a12.11,12.11,0,0,0-2.055,1.233,3.916,3.916,0,0,0-.565.411l-24.452-14.024v-3.8Z" transform="translate(-15.626 -58.924)"/>
      <path id="Path_159" data-name="Path 159" class="cls-4" d="M1839.4,565.036a20.988,20.988,0,0,0,14.743-8.835l1.746,1.027c3.545,2.055,7.192,4.212,10.736,6.37a1.287,1.287,0,0,1,.1.514,3.97,3.97,0,0,1-.1.771,3.167,3.167,0,0,0,0,1.7c.308.873.051,1.13-.976,1.7-7.192,4.161-14.589,8.425-22.5,13.1-.565.308-.719.308-1.181-.051a8.238,8.238,0,0,0-1.952-1.181,5.607,5.607,0,0,1-.565-.308V565.036Z" transform="translate(-45.68 -58.827)"/>
      <path id="Path_160" data-name="Path 160" class="cls-4" d="M1767.4,507.586v-3.339l3.082-1.747,12.74,7.346a21.274,21.274,0,0,0-.154,16.644l-12.637,7.808-.616-.308c-.719-.36-1.438-.719-2.106-1.13-.154-.1-.308-.257-.308-.36C1767.4,524.229,1767.4,515.753,1767.4,507.586Z" transform="translate(-10.666 -32.712)"/>
      <path id="Path_161" data-name="Path 161" class="cls-5" d="M1897.2,490.079a2.961,2.961,0,0,1,3.031-2.979h.052a3.057,3.057,0,0,1-.051,6.113,2.877,2.877,0,0,1-2.158-.925,3.241,3.241,0,0,1-.873-2.209Z" transform="translate(-73.789 -25.222)"/>
      <path id="Path_162" data-name="Path 162" class="cls-5" d="M1898.523,570.173a3,3,0,0,1,2.106-.873h.051a3.115,3.115,0,0,1,3.031,3.082,2.974,2.974,0,0,1-3.082,2.979,3.076,3.076,0,0,1-2.157-.925,3.031,3.031,0,0,1-.873-2.157A2.671,2.671,0,0,1,1898.523,570.173Z" transform="translate(-73.982 -65.198)"/>
      <path id="Path_163" data-name="Path 163" class="cls-5" d="M1830.787,450.636a3.076,3.076,0,0,1-2.157.925,2.983,2.983,0,0,1-3.031-3.031,2.943,2.943,0,0,1,3.031-3.031,3.048,3.048,0,0,1,3.082,3.031A3.41,3.41,0,0,1,1830.787,450.636Z" transform="translate(-38.968 -4.991)"/>
      <path id="Path_164" data-name="Path 164" class="cls-5" d="M1829.831,610.6h0a3.057,3.057,0,1,1,0,6.113,3.076,3.076,0,0,1-2.157-.925,3,3,0,0,1-.873-2.106,3.048,3.048,0,0,1,3.031-3.082Z" transform="translate(-39.553 -85.282)"/>
      <path id="Path_165" data-name="Path 165" class="cls-5" d="M1757.833,569.6h0a3.236,3.236,0,0,1,3.134,3.031,3.157,3.157,0,0,1-3.185,3.185h0a3.16,3.16,0,0,1-3.082-3.082A3.215,3.215,0,0,1,1757.833,569.6Z" transform="translate(-4.49 -65.343)"/>
      <path id="Path_166" data-name="Path 166" class="cls-5" d="M1759.939,491.837a3.076,3.076,0,0,1-2.157.925,3.028,3.028,0,0,1-2.157-.873,3.076,3.076,0,0,1-.925-2.158,2.983,2.983,0,0,1,3.031-3.031h0a3.071,3.071,0,0,1,3.082,2.979A2.659,2.659,0,0,1,1759.939,491.837Z" transform="translate(-4.489 -25.028)"/>
      <path id="Path_167" data-name="Path 167" class="cls-6" d="M1833.377,505.8a6.844,6.844,0,0,0-4.366-6.267c-.514-.205-.565-.36-.565-.976,0-9.657,0-18.493-.051-27.02,0-.616.1-.822.668-1.079a7.14,7.14,0,0,0,4.058-7.859,7.265,7.265,0,0,0-6.473-5.907,7.409,7.409,0,0,0-5.394,1.644l-4.726-2.723c-6.524-3.75-13.253-7.6-19.828-11.353-.411-.205-.462-.36-.359-.822a7.231,7.231,0,0,0-9.2-7.911c-3.75,1.079-5.651,4.418-5.086,8.733l-4.623,2.671c-6.37,3.7-13,7.551-19.469,11.353-.205.1-.205.1-.514-.1-.051-.051-.1-.1-.154-.1a7.053,7.053,0,0,0-7.705-.873,6.82,6.82,0,0,0-4.058,6.729,6.926,6.926,0,0,0,4.315,6.421c.514.257.616.36.616.976,0,9.3,0,18.493.051,27.277a1.027,1.027,0,0,1-.719,1.181,6.927,6.927,0,0,0-4.315,6.421,6.786,6.786,0,0,0,3.7,6.524,7.006,7.006,0,0,0,8.527-.925h0a5.616,5.616,0,0,0,.771.411c2.055,1.182,4.109,2.363,6.216,3.544,5.291,3.031,10.788,6.216,16.181,9.246a1.074,1.074,0,0,1,.308.206c1.181.668,1.7.976,1.284,2.106a.981.981,0,0,0,0,.668v.1a7.216,7.216,0,0,0,7.192,6.421,4.423,4.423,0,0,0,.822-.051,7.064,7.064,0,0,0,6.37-7.859,1.068,1.068,0,0,1,.719-1.284c6.935-4.007,14.486-8.373,23.065-13.407.565-.308.719-.308,1.13,0a6.832,6.832,0,0,0,7.705.565A6.641,6.641,0,0,0,1833.377,505.8Zm-10.428-41.917a2.961,2.961,0,0,1,3.031-2.979h.052a3.057,3.057,0,0,1-.051,6.113,2.877,2.877,0,0,1-2.158-.925A2.83,2.83,0,0,1,1822.949,463.881ZM1824.028,504a3,3,0,0,1,2.106-.873h.051a3.115,3.115,0,0,1,3.031,3.082,2.973,2.973,0,0,1-3.082,2.979,3.077,3.077,0,0,1-2.158-.925,2.979,2.979,0,0,1,.052-4.264Zm-15.822-27.739,12.585-6.986,3.339,1.9v28c-.154.1-.308.154-.462.257l-2,1.079a1.065,1.065,0,0,1-.308.1c-3.7-2.157-7.5-4.418-11.147-6.575l-1.7-.976a21.643,21.643,0,0,0-.308-16.8Zm-12.123,23.732a34.739,34.739,0,0,0,2.928-13.253h6.781c.206,1.9-.719,4.469-2.466,7.038A16.859,16.859,0,0,1,1796.083,499.993Zm-1.335-13.253c-.206,4.315-.822,8.784-3.134,12.688-.514.822-1.284,1.849-2.209,1.849h0c-.771,0-1.644-.771-2.363-2.106a25.032,25.032,0,0,1-2.774-9.811c-.051-.719-.1-1.387-.154-2.157a1.425,1.425,0,0,0-.051-.462Zm-.36-4.315h-10.325c0-.308.051-.565.051-.873a18.825,18.825,0,0,1,.359-3.031,69.119,69.119,0,0,1,2.414-7.6c.565-1.541,1.438-2.312,2.466-2.26,1.13,0,1.747.976,2.466,2.312,1.8,3.339,2.466,6.883,2.877,11.455Zm4.572-.051a36.428,36.428,0,0,0-2.825-12.38c4.315,1.49,8.938,6.678,9.555,12.38Zm-16.438-12.329c-.1.308-.206.565-.308.873a47.859,47.859,0,0,0-1.438,4.829,49.424,49.424,0,0,0-.822,4.931c-.051.565-.154,1.13-.257,1.7h-6.37C1773.737,477.493,1777.847,472.048,1782.521,470.045Zm-2.774,16.695a35.108,35.108,0,0,0,2.825,13.048c-4.469-1.8-9.041-7.192-9.349-13.048Zm39.092-21.524a3.257,3.257,0,0,1-.1.36c-3.6,2-7.243,4.058-10.787,6.01l-1.849,1.027a20.667,20.667,0,0,0-14.743-8.219c0-.154-.051-.36-.051-.514V450.165c0-.668.1-.719.462-.822a3.626,3.626,0,0,0,1.7-.925c.565-.616.873-.616,1.849-.051,5.7,3.339,11.507,6.627,17.106,9.863,1.9,1.079,3.75,2.158,5.651,3.236.308.154.565.308.822.462v.719C1818.839,463.521,1818.891,464.394,1818.839,465.216Zm-27.482-20.548a3.076,3.076,0,0,1-2.158.925,2.983,2.983,0,0,1-3.031-3.031,2.942,2.942,0,0,1,3.031-3.031,3.048,3.048,0,0,1,3.082,3.031,3.413,3.413,0,0,1-.925,2.106Zm-4.264,6.318c-.051,3.339-.051,6.627-.051,10.12v3.339a20.873,20.873,0,0,0-14.332,8.373l-2.106-1.233c-3.6-2.106-7.037-4.058-10.479-6.062a1.754,1.754,0,0,1-.257-.668v-.771a2.966,2.966,0,0,0-.051-1.336c-.1-.514-.051-.668.462-.976,7.808-4.52,15.668-9.041,23.27-13.51a1.719,1.719,0,0,1,.616-.257c.154,0,.257.1.462.257a2.671,2.671,0,0,0,1.387.822C1786.99,449.24,1787.145,449.6,1787.093,450.987Zm-27.072,53.527,12.534-7.757a20.837,20.837,0,0,0,14.948,8.733v4.829c0,3.133.052,6.37.1,9.555,0,.514-.051.616-.462.822a12.1,12.1,0,0,0-2.055,1.233,3.917,3.917,0,0,0-.565.411l-24.452-14.024v-3.8Zm29.794,19.828h0a3.057,3.057,0,1,1,0,6.113,3.057,3.057,0,0,1,0-6.113Zm1.952-18.852a20.988,20.988,0,0,0,14.743-8.835l1.747,1.027c3.544,2.055,7.192,4.212,10.736,6.37a1.287,1.287,0,0,1,.1.514,3.951,3.951,0,0,1-.1.771,3.168,3.168,0,0,0,0,1.7c.308.873.051,1.13-.976,1.7-7.192,4.161-14.589,8.424-22.5,13.1-.565.308-.719.308-1.182-.051a8.233,8.233,0,0,0-1.952-1.181,5.623,5.623,0,0,1-.565-.308V505.489Zm-36.986-31.335v-3.339l3.082-1.747,12.74,7.346a21.275,21.275,0,0,0-.154,16.644l-12.637,7.808-.616-.308c-.719-.36-1.438-.719-2.106-1.13-.154-.1-.308-.257-.308-.36,0-8.322,0-16.746,0-24.914Zm-1.952,29.126h0a3.236,3.236,0,0,1,3.134,3.031,3.157,3.157,0,0,1-3.185,3.185h0a3.16,3.16,0,0,1-3.082-3.082,3.215,3.215,0,0,1,3.133-3.133Zm2.157-37.448a3.076,3.076,0,0,1-2.157.925,3.028,3.028,0,0,1-2.157-.873,3.076,3.076,0,0,1-.925-2.157,2.983,2.983,0,0,1,3.031-3.031h0a3.071,3.071,0,0,1,3.082,2.979A3.03,3.03,0,0,1,1754.988,465.833Z" transform="translate(0)"/>
    </g>
  </g>
</svg>
