<svg xmlns="http://www.w3.org/2000/svg" xmlns:xlink="http://www.w3.org/1999/xlink" viewBox="0 0 230 230">
  <defs>
    <style>
      .cls-1 {
        fill: #fff;
      }

      .cls-2 {
        fill: #f4f4f4;
      }

      .cls-3 {
        fill: #37beb7;
      }

      .cls-4 {
        fill: #f2f3f4;
      }

      .cls-5 {
        fill: #fbc316;
      }

      .cls-6 {
        fill: #000078;
      }

      .cls-7 {
        filter: url(#Rectangle_62);
      }
    </style>

  </defs>
  <g id="Group_60" data-name="Group 60" transform="translate(-151 -758)">
    <g class="cls-7" transform="matrix(1, 0, 0, 1, 151, 758)">
      <rect id="Rectangle_62-2" data-name="Rectangle 62" class="cls-1" width="200" height="200" rx="25" transform="translate(15 11)"/>
    </g>
    <g id="Group_80" data-name="Group 80" transform="translate(-2597.991 382.158)">
      <path id="Path_197" data-name="Path 197" class="cls-2" d="M2912.191,497.555v-41.01a13.021,13.021,0,0,0-.292-3.117,10.576,10.576,0,0,0-10.715-8.329h-71.5a11.121,11.121,0,0,0-2.192.195,10.584,10.584,0,0,0-8.816,10.666c-.049,16.949,0,33.85,0,50.8a10.53,10.53,0,0,0,3.653,8.28,11.015,11.015,0,0,0,7.6,2.679h22.258a.6.6,0,0,0,.049.243c-.925,3.02-1.851,6.04-2.825,9.059a.8.8,0,0,1-.584.341c-.877.049-1.753,0-2.63,0a1.976,1.976,0,0,0-2.143,1.948,2,2,0,0,0,2.192,2h38.526a1.959,1.959,0,1,0,.049-3.9h-2.63a.637.637,0,0,1-.682-.487c-.536-1.851-1.12-3.653-1.7-5.5-.39-1.169-.73-2.387-1.12-3.7h21.674c.682,0,1.364,0,2.046-.049a10.626,10.626,0,0,0,9.839-9.887C2912.24,504.422,2912.191,500.964,2912.191,497.555ZM2822.525,456.2a7.032,7.032,0,0,1,7.306-7.208c14.417.049,28.882,0,43.3,0h27.811a7.535,7.535,0,0,1,3.848.828,6.785,6.785,0,0,1,1.7,1.364,2.725,2.725,0,0,0-.39-.244,6.979,6.979,0,0,0-3.847-.828h-27.811c-14.417,0-28.883.049-43.3,0a7.089,7.089,0,0,0-7.306,7.208c.1,13.248.049,26.447.049,39.695h-1.364v-.925C2822.525,482.8,2822.622,469.5,2822.525,456.2Zm.438,53.137a5.235,5.235,0,0,1-.341-1.51c-.049-2.289,0-4.578,0-6.916h85.526l.1.1v.779h-84.114v6.916a5.625,5.625,0,0,0,.341,1.51,6.039,6.039,0,0,0,2.192,3.02A6.256,6.256,0,0,1,2822.963,509.342Zm31.561,14.368c.536-1.8,1.12-3.556,1.656-5.358a.7.7,0,0,1,.779-.584h17a.814.814,0,0,1,.634.341,1.737,1.737,0,0,0,.195.536h-16.949a.7.7,0,0,0-.78.584c-.535,1.8-1.071,3.555-1.656,5.358-.292.925-.584,1.851-.876,2.825h-1.169C2853.745,526.1,2854.135,524.927,2854.524,523.71Z" transform="translate(-0.854 -0.923)"/>
      <g id="Group_79" data-name="Group 79" transform="translate(2816.99 443.299)">
        <path id="Path_198" data-name="Path 198" class="cls-3" d="M2890.3,603.889h24.109c-.974-3.117-1.9-6.186-2.874-9.254-.049-.195-.438-.341-.633-.341h-17a.7.7,0,0,0-.779.584c-.536,1.8-1.071,3.555-1.656,5.358Q2890.884,601.989,2890.3,603.889Z" transform="translate(-2854.594 -520.748)"/>
        <path id="Path_199" data-name="Path 199" class="cls-4" d="M2827.948,501.5h85.721V459.958a6.741,6.741,0,0,0-3.507-5.65,6.98,6.98,0,0,0-3.848-.828H2878.5c-14.417,0-28.882.049-43.3,0a7.089,7.089,0,0,0-7.306,7.208c.1,13.3.049,26.593.049,39.89Z" transform="translate(-2822.585 -448.511)"/>
        <path id="Path_200" data-name="Path 200" class="cls-3" d="M2828.5,559.687V566.6a5.625,5.625,0,0,0,.341,1.51,6.887,6.887,0,0,0,6.819,4.53h71.353c3.75,0,6.819-2.533,7.062-6.088.195-2.24.049-4.481.049-6.673,0-.049-.049-.049-.1-.1Q2871.36,559.638,2828.5,559.687Z" transform="translate(-2822.894 -502.994)"/>
        <g id="Group_78" data-name="Group 78" transform="translate(55.625 19.61)">
          <g id="Group_77" data-name="Group 77">
            <g id="Group_75" data-name="Group 75" transform="translate(0 4.598)">
              <path id="Path_201" data-name="Path 201" class="cls-4" d="M2939.917,509.56v-9.4a1.3,1.3,0,0,0-.341-.682c-2-2.046-3.994-4.042-5.991-6.039a5.15,5.15,0,0,0-.536-.438,10.4,10.4,0,0,0-.974,10.082C2933.391,506.589,2936.118,508.683,2939.917,509.56Z" transform="translate(-2931.198 -493)"/>
            </g>
            <g id="Group_76" data-name="Group 76" transform="translate(12.616 5.085)">
              <path id="Path_202" data-name="Path 202" class="cls-4" d="M2957.149,510.073a10.755,10.755,0,0,0,7.16-16.073c-2.387,2.143-4.676,4.14-6.916,6.234-.195.146-.243.536-.292.779v8.475a3.325,3.325,0,0,0,.049.584Z" transform="translate(-2957.1 -494)"/>
            </g>
            <path id="Path_203" data-name="Path 203" class="cls-5" d="M2953.32,485.723c-3.945-3.117-9.887-2.533-12.42-.341,2,2,3.994,3.994,6.039,5.991C2949.033,489.522,2951.177,487.671,2953.32,485.723Z" transform="translate(-2936.175 -483.56)"/>
          </g>
        </g>
        <path id="Path_204" data-name="Path 204" class="cls-6" d="M2877,515.919c.39,1.315.779,2.533,1.12,3.7.584,1.8,1.12,3.653,1.7,5.5a.543.543,0,0,0,.682.487h2.63a1.959,1.959,0,1,1-.049,3.9h-38.526a1.981,1.981,0,1,1-.049-3.945h2.63a.8.8,0,0,0,.585-.341c.974-3.02,1.9-6.039,2.825-9.059a.646.646,0,0,0-.049-.244h-22.258a11.1,11.1,0,0,1-7.6-2.679,10.529,10.529,0,0,1-3.653-8.28v-50.8a10.548,10.548,0,0,1,8.816-10.666A11.118,11.118,0,0,1,2828,443.3h71.5a10.576,10.576,0,0,1,10.715,8.329,13.546,13.546,0,0,1,.292,3.117v41.01c0,3.409.049,6.819-.1,10.228a10.626,10.626,0,0,1-9.839,9.887c-.682.049-1.364.049-2.046.049Zm-56.011-20.748h85.721V453.625a6.74,6.74,0,0,0-3.507-5.65,6.978,6.978,0,0,0-3.848-.828h-27.811c-14.417,0-28.882.049-43.3,0a7.089,7.089,0,0,0-7.306,7.208c.1,13.3.049,26.593.049,39.89v.925Zm.048,3.9v6.916a5.644,5.644,0,0,0,.341,1.51,6.888,6.888,0,0,0,6.819,4.53h71.353a6.827,6.827,0,0,0,7.111-6.088c.195-2.24.048-4.481.048-6.673,0-.049-.048-.049-.1-.1-28.541-.1-56.985-.1-85.575-.1Zm30.782,26.5h24.109c-.974-3.117-1.9-6.186-2.874-9.254-.049-.195-.438-.341-.633-.341h-17a.7.7,0,0,0-.78.584c-.536,1.8-1.071,3.555-1.656,5.358Q2852.4,523.59,2851.819,525.563Z" transform="translate(-2816.99 -443.299)"/>
        <path id="Path_205" data-name="Path 205" class="cls-6" d="M2949.074,488.864a14.588,14.588,0,1,1-14.709-14.466,14.532,14.532,0,0,1,14.709,14.466Zm-16.511,10.472v-9.4a1.3,1.3,0,0,0-.341-.682c-2-2.046-3.994-4.042-5.991-6.039a5.173,5.173,0,0,0-.536-.438,10.4,10.4,0,0,0-.974,10.082C2926.036,496.365,2928.715,498.459,2932.563,499.336Zm3.945,0a10.755,10.755,0,0,0,7.16-16.073c-2.387,2.143-4.676,4.14-6.916,6.234-.195.146-.244.536-.292.779v8.475A3.027,3.027,0,0,0,2936.508,499.336Zm4.481-19c-3.945-3.117-9.887-2.533-12.42-.341,2,2,3.994,3.994,6.04,5.991,2.094-1.8,4.188-3.7,6.38-5.65Z" transform="translate(-2869.777 -459.25)"/>
        <path id="Path_206" data-name="Path 206" class="cls-3" d="M2882.9,497.084v10.764a2.123,2.123,0,0,1-.682,1.8,1.874,1.874,0,0,1-2,.341,1.847,1.847,0,0,1-1.217-1.607V486.222a1.94,1.94,0,0,1,2.776-1.948,2,2,0,0,1,1.12,2v10.813Z" transform="translate(-2848.798 -464.207)"/>
        <path id="Path_207" data-name="Path 207" class="cls-3" d="M2898.948,502.983v-9.059a2.028,2.028,0,0,1,1.315-1.948,1.832,1.832,0,0,1,2.192.731,2.583,2.583,0,0,1,.39,1.315V511.9a1.949,1.949,0,0,1-1.948,2.143,2.028,2.028,0,0,1-2-2.192C2898.948,508.925,2898.948,505.954,2898.948,502.983Z" transform="translate(-2859.006 -468.207)"/>
        <path id="Path_208" data-name="Path 208" class="cls-3" d="M2842.946,506.125v8.182a1.887,1.887,0,0,1-1.461,1.851,1.928,1.928,0,0,1-2.143-.925,2.481,2.481,0,0,1-.243-1.072v-16.17a1.925,1.925,0,1,1,3.848,0Z" transform="translate(-2828.33 -470.326)"/>
        <path id="Path_209" data-name="Path 209" class="cls-3" d="M2862.943,515.26v5.017a1.94,1.94,0,0,1-1.9,2.143,1.962,1.962,0,0,1-1.948-2.094V510.194a1.924,1.924,0,0,1,1.9-2.094,2,2,0,0,1,2,2.094C2862.943,511.85,2862.943,513.555,2862.943,515.26Z" transform="translate(-2838.585 -476.538)"/>
        <path id="Path_210" data-name="Path 210" class="cls-6" d="M2980.547,565.3a1.894,1.894,0,0,1,1.948,1.948,1.977,1.977,0,0,1-1.948,1.9,2.02,2.02,0,0,1-1.948-1.948,1.828,1.828,0,0,1,1.948-1.9Z" transform="translate(-2899.886 -505.875)"/>
      </g>
    </g>
  </g>
</svg>
