<svg xmlns="http://www.w3.org/2000/svg" xmlns:xlink="http://www.w3.org/1999/xlink" viewBox="0 0 230 230">
  <defs>
    <style>
      .cls-1 {
        fill: #fff;
      }

      .cls-2 {
        fill: #f4f4f4;
      }

      .cls-3 {
        fill: #fbc316;
      }

      .cls-4 {
        fill: #f2f3f4;
      }

      .cls-5 {
        fill: #37beb7;
      }

      .cls-6 {
        fill: #000078;
      }

      .cls-7 {
        filter: url(#Rectangle_59);
      }
    </style>
  </defs>
  <g id="Group_57" data-name="Group 57" transform="translate(-151 3)">
    <g class="cls-7" transform="matrix(1, 0, 0, 1, 151, -3)">
      <rect id="Rectangle_59-2" data-name="Rectangle 59" class="cls-1" width="200" height="200" rx="25" transform="translate(15 11)"/>
    </g>
    <g id="Group_82" data-name="Group 82" transform="translate(-3689 -387.514)">
      <path id="Path_227" data-name="Path 227" class="cls-2" d="M4003.3,485.12a7.049,7.049,0,0,0-.958-3.72,6.9,6.9,0,0,0-6.425-3.438h-35.791v-.9c0-6.651.057-13.245-.056-19.9a6.919,6.919,0,0,0-6.876-6.764h-37.256a6.113,6.113,0,0,0-2.818.676,6.851,6.851,0,0,0-4.114,6.651v80.317a7.02,7.02,0,0,0,1.973,4.565,7.429,7.429,0,0,0,5.523,2.142h79.754a6.955,6.955,0,0,0,7.045-7.1Zm-89.561,52.53V457.84a2.426,2.426,0,0,1,2.762-2.762h36.242a2.414,2.414,0,0,1,2.705,2.705H3919.2a2.426,2.426,0,0,0-2.762,2.762V539.9a3.218,3.218,0,0,1-.733-.056A2.248,2.248,0,0,1,3913.734,537.65Zm10.146,1.522V526.828c0-1.8.9-2.706,2.762-2.706h5.467v1.071h-4.4a2.431,2.431,0,0,0-2.762,2.705v11.949h-1.071Zm12.963-15.105h5.805a2.32,2.32,0,0,1,2.2,1.353,2.525,2.525,0,0,0-1.127-.225h-5.805v14.654h-1.071Zm13.189,15.049V526.265a6.785,6.785,0,0,0-.846-3.325,6.9,6.9,0,0,1,3.551,6.031c.056,3.607,0,7.271,0,10.878h-2.706Zm10.146.789V482.64H3995.8a2.753,2.753,0,0,1,2.762,2.705h-.056c-11.611.056-23.222,0-34.833,0h-.789V539.9h-2.705Z" transform="translate(-0.873 -1.255)"/>
      <path id="Path_228" data-name="Path 228" class="cls-3" d="M3935.4,596.425h8.229V580.7h-5.467a2.432,2.432,0,0,0-2.762,2.705v13.02Z" transform="translate(-12.393 -58.113)"/>
      <path id="Path_229" data-name="Path 229" class="cls-3" d="M3966.573,596.379c0-.113.056-.282.056-.395v-13.02a2.293,2.293,0,0,0-2.424-2.367H3958.4v15.782Z" transform="translate(-22.429 -58.067)"/>
      <path id="Path_230" data-name="Path 230" class="cls-4" d="M3961.908,545.826V463.705A2.438,2.438,0,0,0,3959.2,461h-36.241a2.426,2.426,0,0,0-2.762,2.762v79.81a2.248,2.248,0,0,0,1.973,2.2c1.184.113,2.424,0,3.72,0v-.733c0-4.115.056-8.229,0-12.344a7.084,7.084,0,0,1,7.327-7.384c5.354.113,10.709,0,16.007.056a8.91,8.91,0,0,1,2.142.225,6.76,6.76,0,0,1,5.129,6.651c.056,4.284,0,8.567,0,12.851v.733Z" transform="translate(-5.76 -5.88)"/>
      <path id="Path_231" data-name="Path 231" class="cls-5" d="M4002.7,567.221h35.622a2.426,2.426,0,0,0,2.762-2.762V512.718a2.743,2.743,0,0,0-2.762-2.818c-11.611.056-23.222,0-34.833,0h-.789Z" transform="translate(-41.76 -27.219)"/>
      <path id="Path_232" data-name="Path 232" class="cls-6" d="M3958.177,475.3h35.791a6.956,6.956,0,0,1,6.426,3.438,7.184,7.184,0,0,1,.958,3.72v52.361a6.921,6.921,0,0,1-7.045,7.1H3914.5a7.059,7.059,0,0,1-7.5-6.707V454.894a6.851,6.851,0,0,1,4.115-6.651,8.256,8.256,0,0,1,2.818-.676c12.4-.056,24.856-.056,37.256,0a6.918,6.918,0,0,1,6.876,6.764c.056,6.651,0,13.245.056,19.9A7.621,7.621,0,0,1,3958.177,475.3Zm-4.734,61.943V455.12a2.438,2.438,0,0,0-2.706-2.705H3914.5a2.426,2.426,0,0,0-2.762,2.762v79.81a2.248,2.248,0,0,0,1.973,2.2c1.184.113,2.424,0,3.72,0v-.733c0-4.115.057-8.229,0-12.344a7.085,7.085,0,0,1,7.327-7.383c5.354.113,10.709,0,16.007.056a8.915,8.915,0,0,1,2.142.225,6.76,6.76,0,0,1,5.129,6.651c.057,4.284,0,8.567,0,12.851v.733Zm4.791.056h35.621a2.426,2.426,0,0,0,2.762-2.762V482.794a2.744,2.744,0,0,0-2.762-2.818c-11.611.056-23.222,0-34.833,0h-.789Zm-36.354-.056h8.229V521.516h-5.467a2.432,2.432,0,0,0-2.762,2.705v13.02Zm21.193,0c0-.113.056-.282.056-.395v-13.02a2.294,2.294,0,0,0-2.423-2.367H3934.9v15.782Z"/>
      <path id="Path_233" data-name="Path 233" class="cls-5" d="M3940.453,467.994h12.963a2.34,2.34,0,1,1-.057,4.678h-25.87a2.339,2.339,0,1,1,0-4.678Z" transform="translate(-7.92 -8.929)"/>
      <path id="Path_234" data-name="Path 234" class="cls-5" d="M3940.279,535.378h-12.794a2.287,2.287,0,0,1-2.367-3.044,2.11,2.11,0,0,1,1.972-1.634h25.984a2.292,2.292,0,0,1,2.593,2.255,2.2,2.2,0,0,1-2.368,2.48C3948.959,535.378,3944.619,535.378,3940.279,535.378Z" transform="translate(-7.86 -36.295)"/>
      <path id="Path_235" data-name="Path 235" class="cls-5" d="M3940.425,488.894h12.794a2.274,2.274,0,0,1,2.424,1.409,2.327,2.327,0,0,1-2.255,3.269h-26.04a2.234,2.234,0,0,1-2.255-2.424,2.191,2.191,0,0,1,2.367-2.255Z" transform="translate(-7.892 -18.049)"/>
      <path id="Path_236" data-name="Path 236" class="cls-5" d="M3940.46,514.433h-12.513a3.648,3.648,0,0,1-1.127-.113,2.148,2.148,0,0,1-1.635-2.367,2.241,2.241,0,0,1,1.8-2.2,4.276,4.276,0,0,1,.846-.056H3953.2c1.973,0,3.044,1.409,2.48,3.156a2.111,2.111,0,0,1-1.747,1.522,4.846,4.846,0,0,1-.9.056Z" transform="translate(-7.928 -27.129)"/>
      <path id="Path_237" data-name="Path 237" class="cls-1" d="M4024.144,522.733h-10.032a2.748,2.748,0,0,1-.677-.056,2.072,2.072,0,0,1-1.635-2.311c0-1.3.62-2.2,1.635-2.311a2.315,2.315,0,0,1,.62-.056H4034.8c1.071.113,1.747,1.015,1.747,2.367a2.07,2.07,0,0,1-1.747,2.311h-.563C4030.907,522.733,4027.525,522.733,4024.144,522.733Z" transform="translate(-45.732 -30.751)"/>
      <path id="Path_238" data-name="Path 238" class="cls-5" d="M4024.125,543.678H4013.7c-1.353,0-2.085-1.071-1.916-2.705a1.924,1.924,0,0,1,1.353-1.86,3.3,3.3,0,0,1,.732-.113h20.572c1.466,0,2.311,1.127,2.029,2.875-.169,1.071-.789,1.8-1.748,1.8Z" transform="translate(-45.713 -39.917)"/>
      <path id="Path_239" data-name="Path 239" class="cls-1" d="M4024.182,559.9H4034.5c1.409,0,2.2,1.184,1.972,2.931a1.986,1.986,0,0,1-1.634,1.8h-21.08c-1.409,0-2.142-1.127-1.973-2.818a1.887,1.887,0,0,1,1.86-1.916Z" transform="translate(-45.713 -49.037)"/>
    </g>
  </g>
</svg>
